HIERARCHY
ROOT Hips
{
	OFFSET 0.000000 0.000000 0.000000
	CHANNELS 6 Xposition Yposition Zposition Xrotation Yrotation Zrotation
	JOINT LeftUpLeg_virtual
	{
		OFFSET 0.000000 0.000000 0.000000
		CHANNELS 3 Xrotation Yrotation Zrotation
		JOINT LeftUpLeg
		{
			OFFSET 15.427100 -6.655098 0.678600
			CHANNELS 3 Xrotation Yrotation Zrotation
			JOINT LeftLeg
			{
				OFFSET 4.081073 -39.591068 13.024000
				CHANNELS 3 Xrotation Yrotation Zrotation
				JOINT LeftFoot
				{
					OFFSET -4.081074 -37.707932 -15.979700
					CHANNELS 3 Xrotation Yrotation Zrotation
					JOINT LeftToeBase
					{
						OFFSET 5.346399 -15.068900 20.645000
						CHANNELS 3 Xrotation Yrotation Zrotation
						JOINT LeftToe_End
						{
							OFFSET 2.754700 0.931300 11.300900
							CHANNELS 3 Xrotation Yrotation Zrotation
							End Site
							{
								OFFSET 0 0 0
							}
						}
					}
				}
			}
		}
	}
	JOINT RightUpLeg_virtual
	{
		OFFSET 0.000000 0.000000 0.000000
		CHANNELS 3 Xrotation Yrotation Zrotation
		JOINT RightUpLeg
		{
			OFFSET -15.569500 -6.655098 0.678600
			CHANNELS 3 Xrotation Yrotation Zrotation
			JOINT RightLeg
			{
				OFFSET -4.081825 -39.591045 13.023800
				CHANNELS 3 Xrotation Yrotation Zrotation
				JOINT RightFoot
				{
					OFFSET 4.081824 -37.707954 -15.979600
					CHANNELS 3 Xrotation Yrotation Zrotation
					JOINT RightToeBase
					{
						OFFSET -5.346400 -15.068900 20.645000
						CHANNELS 3 Xrotation Yrotation Zrotation
						JOINT RightToe_End
						{
							OFFSET -2.754700 0.931300 11.300900
							CHANNELS 3 Xrotation Yrotation Zrotation
							End Site
							{
								OFFSET 0 0 0
							}
						}
					}
				}
			}
		}
	}
	JOINT Spine_virtual
	{
		OFFSET 0.000000 0.000000 0.000000
		CHANNELS 3 Xrotation Yrotation Zrotation
		JOINT Spine
		{
			OFFSET -0.279200 12.230698 -2.892100
			CHANNELS 3 Xrotation Yrotation Zrotation
			JOINT Spine1
			{
				OFFSET -0.232667 10.192268 -1.242267
				CHANNELS 3 Xrotation Yrotation Zrotation
				JOINT Spine1_split
				{
					OFFSET -0.232667 10.192268 -1.242267
					CHANNELS 3 Xrotation Yrotation Zrotation
					JOINT Spine2
					{
						OFFSET -0.232667 10.192268 -1.242267
						CHANNELS 3 Xrotation Yrotation Zrotation
						JOINT Neck_virtual
						{
							OFFSET 0.000000 0.000000 0.000000
							CHANNELS 3 Xrotation Yrotation Zrotation
							JOINT Neck
							{
								OFFSET -0.418800 17.814194 8.416900
								CHANNELS 3 Xrotation Yrotation Zrotation
								JOINT Head
								{
									OFFSET 0.000000 7.031097 3.806800
									CHANNELS 3 Xrotation Yrotation Zrotation
									JOINT HeadTop_End
									{
										OFFSET 0.000000 24.646606 12.978600
										CHANNELS 3 Xrotation Yrotation Zrotation
										End Site
										{
											OFFSET 0 0 0
										}
									}
								}
							}
						}
						JOINT LeftShoulder_virtual
						{
							OFFSET 0.000000 0.000000 0.000000
							CHANNELS 3 Xrotation Yrotation Zrotation
							JOINT LeftShoulder
							{
								OFFSET 8.476499 7.247704 -3.868750
								CHANNELS 3 Xrotation Yrotation Zrotation
								JOINT LeftShoulder_split
								{
									OFFSET 8.476499 7.247704 -3.868750
									CHANNELS 3 Xrotation Yrotation Zrotation
									JOINT LeftArm
									{
										OFFSET 9.308998 -2.777710 0.208600
										CHANNELS 3 Xrotation Yrotation Zrotation
										JOINT LeftForeArm
										{
											OFFSET 29.972298 0.000000 0.000000
											CHANNELS 3 Xrotation Yrotation Zrotation
											JOINT LeftHand
											{
												OFFSET 26.026505 0.000000 0.000000
												CHANNELS 3 Xrotation Yrotation Zrotation
												End Site
												{
													OFFSET 0 0 0
												}
											}
										}
									}
								}
							}
						}
						JOINT RightShoulder_virtual
						{
							OFFSET 0.000000 0.000000 0.000000
							CHANNELS 3 Xrotation Yrotation Zrotation
							JOINT RightShoulder
							{
								OFFSET -7.570500 7.247704 -3.868750
								CHANNELS 3 Xrotation Yrotation Zrotation
								JOINT RightShoulder_split
								{
									OFFSET -7.570500 7.247704 -3.868750
									CHANNELS 3 Xrotation Yrotation Zrotation
									JOINT RightArm
									{
										OFFSET -9.308998 -2.777710 0.208500
										CHANNELS 3 Xrotation Yrotation Zrotation
										JOINT RightForeArm
										{
											OFFSET -29.972300 0.000000 0.000000
											CHANNELS 3 Xrotation Yrotation Zrotation
											JOINT RightHand
											{
												OFFSET -26.026505 0.000000 0.000000
												CHANNELS 3 Xrotation Yrotation Zrotation
												End Site
												{
													OFFSET 0 0 0
												}
											}
										}
									}
								}
							}
						}
					}
				}
			}
		}
	}
}
MOTION
Frames: 4
Frame Time: 0.03333333
-6.380383 91.507019 -9.793457 0.000000 0.000000 0.000000 -10.952797 -1.967278 3.946310 -6.482510 7.195564 -1.310420 21.878187 2.011260 -2.486271 -9.567691 5.230699 2.393525 -1.855380 0.154327 -0.265717 0.000000 0.000000 0.000000 -9.916846 -3.303076 3.646702 -11.685529 -11.275422 -17.657618 34.104921 2.427508 1.743460 -11.454995 -17.204634 3.222179 -1.126476 0.727516 0.298827 0.000000 0.000000 0.000000 -9.847408 -1.922138 4.088684 6.693398 1.683033 -2.768579 14.398124 2.749143 -1.644083 0.457023 -1.895931 0.352128 0.000000 0.000000 0.000000 14.057919 2.504693 -2.179110 29.879247 -1.752861 -5.893194 1.288135 -1.486619 -5.275382 0.000000 0.000000 0.000000 14.948760 3.081074 -2.963354 -3.082627 -22.979886 -26.323498 -1.790828 -0.723948 -4.089044 -0.401716 -43.160218 -29.097511 9.755119 -24.579325 0.225014 0.000000 0.000000 0.000000 14.471667 3.075520 -2.515403 0.242321 23.201914 23.384939 0.340068 0.907810 1.892626 -9.269913 20.492921 39.278652 36.015301 42.882916 -16.207494 0.000000 0.000000 0.000000 
-5.845940 91.827057 -9.670456 0.000000 0.000000 0.000000 -11.636553 -2.759470 4.495578 -3.564538 8.014235 -2.184726 18.905019 1.827361 -2.641753 -8.641592 4.888884 1.757665 -0.782340 0.275145 -0.511791 0.000000 0.000000 0.000000 -10.748719 -3.095749 4.199531 -10.174842 -12.281589 -19.216078 32.828232 2.589571 1.741657 -11.458631 -16.002138 3.655797 -0.901080 0.638427 0.377264 0.000000 0.000000 0.000000 -11.314341 -1.623053 4.509550 6.641490 1.601911 -3.540949 13.006903 2.828670 -2.026982 0.876081 -2.024407 0.345085 0.000000 0.000000 0.000000 12.561341 2.603522 -2.368015 28.304893 -0.977626 -5.912307 0.736210 -0.101246 -5.529374 0.000000 0.000000 0.000000 13.528651 3.163149 -3.074679 -1.832378 -21.905938 -22.919207 -2.205376 -0.634740 -3.644698 -0.618104 -40.335484 -31.788284 8.565116 -23.682889 0.068741 0.000000 0.000000 0.000000 13.154413 3.142967 -2.676176 0.811593 21.634462 22.062887 0.568246 0.823192 2.248705 -4.460786 22.821325 40.277431 33.886437 45.315983 -15.358923 0.000000 0.000000 0.000000 
-5.448149 91.957718 -9.384560 0.000000 0.000000 0.000000 -11.690975 -3.374960 4.775748 -1.585894 8.565889 -2.822761 16.602566 1.727430 -2.665543 -7.850279 4.377982 1.275382 -0.149145 0.323104 -0.618680 0.000000 0.000000 0.000000 -10.998824 -2.834923 4.546550 -9.202393 -12.836507 -20.347958 32.000075 2.790657 1.829371 -11.665612 -14.959974 4.244958 -1.247969 0.577358 0.321582 0.000000 0.000000 0.000000 -11.909079 -1.174636 4.716739 6.439096 1.444118 -4.212759 11.609317 2.876040 -2.378026 1.074461 -2.132958 0.151491 0.000000 0.000000 0.000000 11.163518 2.653292 -2.565684 26.669946 -0.374392 -5.217847 -0.138643 0.919529 -5.427689 0.000000 0.000000 0.000000 12.122852 3.193222 -3.131037 -0.449275 -20.840079 -18.722119 -2.733577 -0.568558 -3.217314 -0.612775 -35.930084 -34.530096 8.961224 -24.338488 0.555243 0.000000 0.000000 0.000000 11.773586 3.138306 -2.831317 1.482868 19.895470 19.830920 0.678498 0.804123 2.462223 -0.493583 23.686555 41.813052 32.775896 47.055492 -15.444721 0.000000 0.000000 0.000000 
-5.217967 91.921547 -9.065022 0.000000 0.000000 0.000000 -11.412816 -3.765734 4.779121 -0.643002 8.983986 -3.146557 15.221049 1.720132 -2.624685 -7.085588 3.792217 1.122642 -0.026141 0.301882 -0.531510 0.000000 0.000000 0.000000 -10.824593 -2.744995 4.683709 -8.779430 -12.882346 -21.148726 31.549149 3.037417 1.998879 -11.674987 -14.160968 4.991823 -2.092140 0.535643 0.171634 0.000000 0.000000 0.000000 -11.863977 -0.900221 4.687448 6.041255 1.272152 -4.660340 10.261547 2.873299 -2.647080 1.460750 -2.268009 0.077741 0.000000 0.000000 0.000000 9.890510 2.634404 -2.738747 24.816215 0.062161 -4.087280 -1.409168 1.615069 -5.022340 0.000000 0.000000 0.000000 10.847002 3.127732 -3.168845 0.895452 -19.691630 -14.442826 -3.366093 -0.756699 -3.206592 0.178820 -30.248937 -37.180118 10.836510 -25.318253 1.448543 0.000000 0.000000 0.000000 10.420205 3.068298 -2.964678 2.134847 18.102021 17.088805 0.280652 1.028284 2.736068 1.878846 22.694936 43.988044 32.823372 47.641239 -16.372792 0.000000 0.000000 0.000000 
